<?xml version="1.0" standalone="no"?>
<!DOCTYPE svg PUBLIC "-//W3C//DTD SVG 20010904//EN"
 "http://www.w3.org/TR/2001/REC-SVG-20010904/DTD/svg10.dtd">
<svg version="1.0" xmlns="http://www.w3.org/2000/svg"
 width="100.000000pt" height="100.000000pt" viewBox="0 0 100.000000 100.000000"
 preserveAspectRatio="xMidYMid meet">
<metadata>
Created by potrace 1.14, written by Peter Selinger 2001-2017
</metadata>
<g transform="translate(0.000000,100.000000) scale(0.100000,-0.100000)"
fill="#000000" stroke="none">
<path d="M431 987 c-47 -18 -108 -72 -143 -126 -38 -61 -76 -185 -80 -260 -3
-63 -6 -69 -25 -50 -22 22 -58 0 -96 -60 -53 -82 -80 -163 -83 -248 -3 -59 1
-79 22 -122 58 -115 200 -152 356 -90 29 11 67 29 84 40 l31 19 -4 -23 c-3
-13 1 -28 9 -34 42 -34 260 -40 333 -9 113 48 172 132 162 230 -10 99 -81 204
-186 274 -53 35 -56 39 -37 48 18 8 21 17 19 63 -6 132 -91 284 -185 332 -50
26 -132 33 -177 16z m131 -83 c67 -33 126 -130 148 -239 6 -33 16 -68 21 -77
7 -14 -1 -13 -44 7 -29 14 -76 30 -104 36 -30 7 -53 18 -53 25 0 24 -51 54
-92 54 -32 0 -46 -6 -69 -31 -39 -41 -39 -87 -1 -130 36 -41 98 -45 136 -10
28 26 43 25 136 -11 118 -46 216 -127 256 -213 30 -63 30 -103 1 -146 -47 -71
-164 -101 -307 -79 l-80 12 38 28 c39 28 132 129 132 142 0 5 9 8 21 8 48 0
99 51 99 100 0 49 -51 100 -99 100 -69 0 -122 -81 -91 -140 8 -15 4 -26 -17
-52 -80 -97 -183 -168 -281 -193 -143 -37 -225 13 -229 137 -2 70 22 140 74
217 21 31 41 63 44 71 3 8 7 -11 8 -43 0 -33 3 -63 7 -68 3 -5 1 -9 -4 -9 -13
0 -32 -47 -32 -81 0 -46 48 -89 97 -89 63 1 103 46 98 110 -3 33 -24 59 -69
85 -33 19 -24 217 14 316 53 142 153 208 242 163z m-102 -288 c0 -15 -24 -28
-34 -19 -13 14 -5 33 14 33 11 0 20 -6 20 -14z m256 -227 c10 -17 -13 -36 -27
-22 -12 12 -4 33 11 33 5 0 12 -5 16 -11z m-422 -71 c-3 -4 -12 -8 -20 -8 -17
0 -19 27 -1 33 14 5 28 -13 21 -25z"/>
</g>
</svg>
